<svg width="1076" height="347" viewBox="0 0 1076 347" fill="none" xmlns="http://www.w3.org/2000/svg">
<mask id="path-1-outside-1_5214_48344" maskUnits="userSpaceOnUse" x="0" y="-0.175781" width="1076" height="347" fill="black">
<rect fill="white" y="-0.175781" width="1076" height="347"/>
<path d="M136.607 242.57L159.67 228.732V224.119C156.595 225.964 152.905 227.502 148.6 228.732C144.91 229.962 140.297 231.038 134.762 231.961C129.226 232.883 122.922 233.345 115.85 233.345C100.166 233.345 85.4057 230.423 71.5676 224.58C58.0369 218.43 46.1976 210.281 36.0497 200.133C25.9017 189.985 17.7526 178.146 11.6023 164.615C5.75952 150.777 2.83814 136.016 2.83814 120.333C2.83814 104.342 6.06704 89.2741 12.5248 75.1285C18.9826 60.6753 28.2081 48.0672 40.2011 37.3042C52.5017 26.5412 67.2624 18.0846 84.4832 11.9343C102.011 5.78401 121.692 2.70887 143.526 2.70887C165.359 2.70887 184.887 5.93776 202.107 12.3956C219.636 18.5458 234.396 27.1563 246.389 38.2268C258.69 48.9898 268.069 61.9054 274.527 76.9736C280.985 91.7342 284.214 107.725 284.214 124.946C284.214 136.016 282.676 146.933 279.601 157.696C276.526 168.152 272.374 178.453 267.147 188.601C261.919 198.749 255.922 208.743 249.157 218.584C242.699 228.424 235.934 237.957 228.861 247.183L161.977 334.824H67.4161L136.607 242.57ZM143.526 164.154C161.054 164.154 174.277 160.156 183.195 152.161C192.113 143.858 196.572 133.249 196.572 120.333C196.572 107.417 192.113 96.962 183.195 88.9666C174.277 80.6637 161.054 76.5123 143.526 76.5123C125.998 76.5123 112.774 80.6637 103.857 88.9666C94.9386 96.962 90.4797 107.417 90.4797 120.333C90.4797 133.249 94.9386 143.858 103.857 152.161C112.774 160.156 125.998 164.154 143.526 164.154ZM477.912 344.05C454.848 344.05 433.476 339.898 413.795 331.595C394.114 323.292 377.047 311.761 362.594 297C348.141 281.932 336.763 263.942 328.46 243.031C320.464 222.12 316.467 198.903 316.467 173.379C316.467 148.163 320.464 125.1 328.46 104.189C336.763 82.9701 348.141 64.9805 362.594 50.2198C377.047 35.1516 394.114 23.4661 413.795 15.1632C433.476 6.86031 454.848 2.70887 477.912 2.70887C500.975 2.70887 522.347 6.86031 542.028 15.1632C561.709 23.4661 578.776 35.1516 593.229 50.2198C607.683 64.9805 618.907 82.9701 626.902 104.189C635.205 125.1 639.357 148.163 639.357 173.379C639.357 198.903 635.205 222.12 626.902 243.031C618.907 263.942 607.683 281.932 593.229 297C578.776 311.761 561.709 323.292 542.028 331.595C522.347 339.898 500.975 344.05 477.912 344.05ZM477.912 265.634C488.367 265.634 497.9 263.788 506.51 260.098C515.428 256.101 522.962 250.412 529.113 243.031C535.57 235.343 540.491 225.81 543.873 214.432C547.564 202.747 549.409 189.062 549.409 173.379C549.409 157.696 547.564 144.165 543.873 132.787C540.491 121.102 535.57 111.569 529.113 104.189C522.962 96.5007 515.428 90.8117 506.51 87.1215C497.9 83.1238 488.367 81.125 477.912 81.125C457.001 81.125 439.78 88.8129 426.249 104.189C413.026 119.257 406.415 142.32 406.415 173.379C406.415 204.438 413.026 227.656 426.249 243.031C439.78 258.099 457.001 265.634 477.912 265.634ZM687.916 11.9343H807.847L874.731 177.992H886.263L953.147 11.9343H1073.08V334.824H987.742V150.316L994.662 108.801H990.049L927.777 261.021H833.217L770.945 108.801H766.332L773.251 150.316V334.824H687.916V11.9343Z"/>
</mask>
<g filter="url(#filter0_i_5214_48344)">
<path d="M136.607 242.57L159.67 228.732V224.119C156.595 225.964 152.905 227.502 148.6 228.732C144.91 229.962 140.297 231.038 134.762 231.961C129.226 232.883 122.922 233.345 115.85 233.345C100.166 233.345 85.4057 230.423 71.5676 224.58C58.0369 218.43 46.1976 210.281 36.0497 200.133C25.9017 189.985 17.7526 178.146 11.6023 164.615C5.75952 150.777 2.83814 136.016 2.83814 120.333C2.83814 104.342 6.06704 89.2741 12.5248 75.1285C18.9826 60.6753 28.2081 48.0672 40.2011 37.3042C52.5017 26.5412 67.2624 18.0846 84.4832 11.9343C102.011 5.78401 121.692 2.70887 143.526 2.70887C165.359 2.70887 184.887 5.93776 202.107 12.3956C219.636 18.5458 234.396 27.1563 246.389 38.2268C258.69 48.9898 268.069 61.9054 274.527 76.9736C280.985 91.7342 284.214 107.725 284.214 124.946C284.214 136.016 282.676 146.933 279.601 157.696C276.526 168.152 272.374 178.453 267.147 188.601C261.919 198.749 255.922 208.743 249.157 218.584C242.699 228.424 235.934 237.957 228.861 247.183L161.977 334.824H67.4161L136.607 242.57ZM143.526 164.154C161.054 164.154 174.277 160.156 183.195 152.161C192.113 143.858 196.572 133.249 196.572 120.333C196.572 107.417 192.113 96.962 183.195 88.9666C174.277 80.6637 161.054 76.5123 143.526 76.5123C125.998 76.5123 112.774 80.6637 103.857 88.9666C94.9386 96.962 90.4797 107.417 90.4797 120.333C90.4797 133.249 94.9386 143.858 103.857 152.161C112.774 160.156 125.998 164.154 143.526 164.154ZM477.912 344.05C454.848 344.05 433.476 339.898 413.795 331.595C394.114 323.292 377.047 311.761 362.594 297C348.141 281.932 336.763 263.942 328.46 243.031C320.464 222.12 316.467 198.903 316.467 173.379C316.467 148.163 320.464 125.1 328.46 104.189C336.763 82.9701 348.141 64.9805 362.594 50.2198C377.047 35.1516 394.114 23.4661 413.795 15.1632C433.476 6.86031 454.848 2.70887 477.912 2.70887C500.975 2.70887 522.347 6.86031 542.028 15.1632C561.709 23.4661 578.776 35.1516 593.229 50.2198C607.683 64.9805 618.907 82.9701 626.902 104.189C635.205 125.1 639.357 148.163 639.357 173.379C639.357 198.903 635.205 222.12 626.902 243.031C618.907 263.942 607.683 281.932 593.229 297C578.776 311.761 561.709 323.292 542.028 331.595C522.347 339.898 500.975 344.05 477.912 344.05ZM477.912 265.634C488.367 265.634 497.9 263.788 506.51 260.098C515.428 256.101 522.962 250.412 529.113 243.031C535.57 235.343 540.491 225.81 543.873 214.432C547.564 202.747 549.409 189.062 549.409 173.379C549.409 157.696 547.564 144.165 543.873 132.787C540.491 121.102 535.57 111.569 529.113 104.189C522.962 96.5007 515.428 90.8117 506.51 87.1215C497.9 83.1238 488.367 81.125 477.912 81.125C457.001 81.125 439.78 88.8129 426.249 104.189C413.026 119.257 406.415 142.32 406.415 173.379C406.415 204.438 413.026 227.656 426.249 243.031C439.78 258.099 457.001 265.634 477.912 265.634ZM687.916 11.9343H807.847L874.731 177.992H886.263L953.147 11.9343H1073.08V334.824H987.742V150.316L994.662 108.801H990.049L927.777 261.021H833.217L770.945 108.801H766.332L773.251 150.316V334.824H687.916V11.9343Z" fill="white" fill-opacity="0.08"/>
</g>
<path d="M136.607 242.57L135.578 240.855L135.242 241.057L135.007 241.37L136.607 242.57ZM159.67 228.732L160.699 230.447L161.67 229.864V228.732H159.67ZM159.67 224.119H161.67V220.587L158.641 222.404L159.67 224.119ZM148.6 228.732L148.05 226.809L148.009 226.821L147.967 226.834L148.6 228.732ZM134.762 231.961L135.091 233.934L134.762 231.961ZM71.5676 224.58L70.74 226.401L70.7646 226.412L70.7896 226.423L71.5676 224.58ZM36.0497 200.133L37.4639 198.719L36.0497 200.133ZM11.6023 164.615L9.7598 165.393L9.77034 165.418L9.78156 165.443L11.6023 164.615ZM12.5248 75.1285L14.3442 75.959L14.3476 75.9517L14.3509 75.9444L12.5248 75.1285ZM40.2011 37.3042L38.8841 35.7991L38.8747 35.8073L38.8653 35.8157L40.2011 37.3042ZM84.4832 11.9343L83.821 10.0471L83.8105 10.0508L84.4832 11.9343ZM202.107 12.3956L201.405 14.2682L201.425 14.2757L201.445 14.2827L202.107 12.3956ZM246.389 38.2268L245.033 39.6964L245.052 39.7144L245.072 39.7319L246.389 38.2268ZM274.527 76.9736L272.689 77.7614L272.692 77.7683L272.695 77.7752L274.527 76.9736ZM279.601 157.696L281.52 158.26L281.522 158.253L281.524 158.245L279.601 157.696ZM267.147 188.601L268.925 189.517L267.147 188.601ZM249.157 218.584L247.509 217.451L247.497 217.469L247.485 217.487L249.157 218.584ZM228.861 247.183L227.274 245.966L227.271 245.969L228.861 247.183ZM161.977 334.824V336.824H162.966L163.567 336.038L161.977 334.824ZM67.4161 334.824L65.8161 333.624L63.4161 336.824H67.4161V334.824ZM183.195 152.161L184.53 153.65L184.544 153.637L184.558 153.625L183.195 152.161ZM183.195 88.9666L181.832 90.4304L181.846 90.4432L181.86 90.4557L183.195 88.9666ZM103.857 88.9666L105.192 90.4557L105.206 90.4432L105.219 90.4304L103.857 88.9666ZM103.857 152.161L102.494 153.625L102.507 153.637L102.521 153.65L103.857 152.161ZM137.636 244.285L160.699 230.447L158.641 227.017L135.578 240.855L137.636 244.285ZM161.67 228.732V224.119H157.67V228.732H161.67ZM158.641 222.404C155.748 224.14 152.227 225.615 148.05 226.809L149.149 230.655C153.583 229.388 157.442 227.788 160.699 225.834L158.641 222.404ZM147.967 226.834C144.409 228.021 139.906 229.076 134.433 229.988L135.091 233.934C140.688 233.001 145.41 231.903 149.232 230.629L147.967 226.834ZM134.433 229.988C129.03 230.888 122.839 231.345 115.85 231.345V235.345C123.006 235.345 129.423 234.878 135.091 233.934L134.433 229.988ZM115.85 231.345C100.422 231.345 85.9266 228.472 72.3455 222.738L70.7896 226.423C84.8848 232.374 99.9112 235.345 115.85 235.345V231.345ZM72.3952 222.76C59.075 216.705 47.4362 208.691 37.4639 198.719L34.6355 201.547C44.959 211.871 56.9989 220.155 70.74 226.401L72.3952 222.76ZM37.4639 198.719C27.4915 188.746 19.4777 177.108 13.423 163.788L9.78156 165.443C16.0275 179.184 24.3119 191.224 34.6355 201.547L37.4639 198.719ZM13.4448 163.837C7.71054 150.256 4.83814 135.761 4.83814 120.333H0.83814C0.83814 136.271 3.80851 151.298 9.7598 165.393L13.4448 163.837ZM4.83814 120.333C4.83814 104.621 8.00886 89.8365 14.3442 75.959L10.7055 74.2979C4.12522 88.7117 0.83814 104.064 0.83814 120.333H4.83814ZM14.3509 75.9444C20.6921 61.752 29.7488 49.3718 41.5369 38.7927L38.8653 35.8157C26.6673 46.7626 17.2731 59.5986 10.6988 74.3126L14.3509 75.9444ZM41.5181 38.8094C53.6084 28.2304 68.1437 19.8936 85.1558 13.8178L83.8105 10.0508C66.3811 16.2756 51.3949 24.8521 38.8841 35.7991L41.5181 38.8094ZM85.1453 13.8215C102.427 7.75768 121.879 4.70886 143.526 4.70886V0.708862C121.506 0.708862 101.596 3.81035 83.821 10.0471L85.1453 13.8215ZM143.526 4.70886C165.163 4.70886 184.447 7.90875 201.405 14.2682L202.81 10.5229C185.327 3.96677 165.555 0.708862 143.526 0.708862V4.70886ZM201.445 14.2827C218.751 20.3551 233.266 28.8349 245.033 39.6964L247.746 36.7572C235.526 25.4776 220.52 16.7366 202.77 10.5083L201.445 14.2827ZM245.072 39.7319C257.147 50.2972 266.348 62.9674 272.689 77.7614L276.365 76.1857C269.79 60.8433 260.233 47.6823 247.706 36.7216L245.072 39.7319ZM272.695 77.7752C279.034 92.266 282.214 107.982 282.214 124.946H286.214C286.214 107.468 282.935 91.2025 276.359 76.1719L272.695 77.7752ZM282.214 124.946C282.214 135.828 280.703 146.56 277.678 157.147L281.524 158.245C284.65 147.306 286.214 136.204 286.214 124.946H282.214ZM277.682 157.132C274.644 167.46 270.541 177.645 265.369 187.685L268.925 189.517C274.207 179.262 278.407 168.843 281.52 158.26L277.682 157.132ZM265.369 187.685C260.181 197.755 254.229 207.677 247.509 217.451L250.805 219.717C257.616 209.81 263.656 199.743 268.925 189.517L265.369 187.685ZM247.485 217.487C241.054 227.287 234.317 236.78 227.274 245.966L230.448 248.4C237.551 239.135 244.345 229.562 250.829 219.681L247.485 217.487ZM227.271 245.969L160.387 333.611L163.567 336.038L230.451 248.396L227.271 245.969ZM161.977 332.824H67.4161V336.824H161.977V332.824ZM69.0161 336.024L138.207 243.77L135.007 241.37L65.8161 333.624L69.0161 336.024ZM143.526 166.154C161.323 166.154 175.107 162.098 184.53 153.65L181.86 150.672C173.447 158.214 160.786 162.154 143.526 162.154V166.154ZM184.558 153.625C193.909 144.919 198.572 133.766 198.572 120.333H194.572C194.572 132.731 190.317 142.797 181.832 150.697L184.558 153.625ZM198.572 120.333C198.572 106.899 193.907 95.8844 184.53 87.4774L181.86 90.4557C190.319 98.0396 194.572 107.936 194.572 120.333H198.572ZM184.558 87.5028C175.135 78.7299 161.34 74.5123 143.526 74.5123V78.5123C160.769 78.5123 173.419 82.5976 181.832 90.4304L184.558 87.5028ZM143.526 74.5123C125.712 74.5123 111.917 78.7299 102.494 87.5028L105.219 90.4304C113.632 82.5976 126.283 78.5123 143.526 78.5123V74.5123ZM102.521 87.4774C93.1445 95.8844 88.4797 106.899 88.4797 120.333H92.4797C92.4797 107.936 96.7328 98.0396 105.192 90.4557L102.521 87.4774ZM88.4797 120.333C88.4797 133.766 93.1429 144.919 102.494 153.625L105.219 150.697C96.7344 142.797 92.4797 132.731 92.4797 120.333H88.4797ZM102.521 153.65C111.945 162.098 125.729 166.154 143.526 166.154V162.154C126.266 162.154 113.604 158.214 105.192 150.672L102.521 153.65ZM362.594 297L361.15 298.384L361.158 298.392L361.165 298.399L362.594 297ZM328.46 243.031L326.592 243.745L326.596 243.757L326.601 243.769L328.46 243.031ZM328.46 104.189L326.597 103.46L326.594 103.467L326.592 103.474L328.46 104.189ZM362.594 50.2198L364.023 51.619L364.03 51.6117L364.037 51.6043L362.594 50.2198ZM593.229 50.2198L591.786 51.6043L591.793 51.6117L591.8 51.619L593.229 50.2198ZM626.902 104.189L625.031 104.894L625.037 104.91L625.043 104.927L626.902 104.189ZM626.902 243.031L625.043 242.293L625.039 242.305L625.034 242.317L626.902 243.031ZM593.229 297L594.658 298.399L594.666 298.392L594.673 298.384L593.229 297ZM506.51 260.098L507.298 261.937L507.313 261.93L507.328 261.923L506.51 260.098ZM529.113 243.031L527.581 241.745L527.576 241.751L529.113 243.031ZM543.873 214.432L541.966 213.83L541.961 213.846L541.956 213.862L543.873 214.432ZM543.873 132.787L541.952 133.344L541.961 133.374L541.971 133.404L543.873 132.787ZM529.113 104.189L527.551 105.438L527.578 105.472L527.608 105.506L529.113 104.189ZM506.51 87.1215L505.668 88.9355L505.707 88.9534L505.746 88.9696L506.51 87.1215ZM426.249 104.189L424.748 102.867L424.746 102.869L426.249 104.189ZM426.249 243.031L424.733 244.335L424.747 244.352L424.761 244.367L426.249 243.031ZM477.912 342.05C455.094 342.05 433.988 337.944 414.572 329.753L413.017 333.438C432.963 341.853 454.602 346.05 477.912 346.05V342.05ZM414.572 329.753C395.127 321.549 378.284 310.165 364.023 295.601L361.165 298.399C375.81 313.356 393.101 325.036 413.017 333.438L414.572 329.753ZM364.037 295.616C349.776 280.748 338.533 262.983 330.318 242.293L326.601 243.769C334.992 264.902 346.505 283.116 361.15 298.384L364.037 295.616ZM330.328 242.317C322.431 221.664 318.467 198.693 318.467 173.379H314.467C314.467 199.113 318.498 222.577 326.592 243.745L330.328 242.317ZM318.467 173.379C318.467 148.377 322.43 125.559 330.328 104.903L326.592 103.474C318.499 124.64 314.467 147.95 314.467 173.379H318.467ZM330.322 104.917C338.537 83.9233 349.776 66.1687 364.023 51.619L361.165 48.8206C346.505 63.7922 334.988 82.0168 326.597 103.46L330.322 104.917ZM364.037 51.6043C378.297 36.7372 395.136 25.2055 414.572 17.0059L413.017 13.3205C393.092 21.7267 375.796 33.5661 361.15 48.8354L364.037 51.6043ZM414.572 17.0059C433.988 8.81488 455.094 4.70886 477.912 4.70886V0.708862C454.602 0.708862 432.963 4.90575 413.017 13.3205L414.572 17.0059ZM477.912 4.70886C500.73 4.70886 521.835 8.81488 541.251 17.0059L542.806 13.3205C522.86 4.90575 501.221 0.708862 477.912 0.708862V4.70886ZM541.251 17.0059C560.687 25.2055 577.526 36.7372 591.786 51.6043L594.673 48.8354C580.027 33.5661 562.732 21.7267 542.806 13.3205L541.251 17.0059ZM591.8 51.619C606.041 66.163 617.123 83.9093 625.031 104.894L628.774 103.483C620.69 82.0309 609.324 63.798 594.658 48.8206L591.8 51.619ZM625.043 104.927C633.242 125.576 637.357 148.385 637.357 173.379H641.357C641.357 147.941 637.168 124.623 628.761 103.451L625.043 104.927ZM637.357 173.379C637.357 198.684 633.241 221.647 625.043 242.293L628.761 243.769C637.169 222.594 641.357 199.122 641.357 173.379H637.357ZM625.034 242.317C617.127 262.997 606.041 280.754 591.786 295.616L594.673 298.384C609.324 283.11 620.687 264.888 628.77 243.745L625.034 242.317ZM591.8 295.601C577.539 310.165 560.696 321.549 541.251 329.753L542.806 333.438C562.723 325.036 580.013 313.356 594.658 298.399L591.8 295.601ZM541.251 329.753C521.835 337.944 500.73 342.05 477.912 342.05V346.05C501.221 346.05 522.86 341.853 542.806 333.438L541.251 329.753ZM477.912 267.634C488.606 267.634 498.411 265.745 507.298 261.937L505.723 258.26C497.389 261.832 488.128 263.634 477.912 263.634V267.634ZM507.328 261.923C516.519 257.803 524.301 251.93 530.649 244.312L527.576 241.751C521.624 248.893 514.337 254.398 505.692 258.273L507.328 261.923ZM530.644 244.318C537.307 236.385 542.344 226.596 545.79 215.002L541.956 213.862C538.638 225.025 533.834 234.302 527.581 241.745L530.644 244.318ZM545.781 215.035C549.547 203.109 551.409 189.213 551.409 173.379H547.409C547.409 188.912 545.58 202.385 541.966 213.83L545.781 215.035ZM551.409 173.379C551.409 157.548 549.547 143.799 545.776 132.17L541.971 133.404C545.58 144.532 547.409 157.844 547.409 173.379H551.409ZM545.794 132.231C542.35 120.331 537.309 110.518 530.618 102.872L527.608 105.506C533.832 112.619 538.632 121.873 541.952 133.344L545.794 132.231ZM530.674 102.939C524.318 94.9932 516.511 89.0954 507.275 85.2735L505.746 88.9696C514.345 92.528 521.607 98.0082 527.551 105.438L530.674 102.939ZM507.353 85.3075C498.453 81.1754 488.628 79.125 477.912 79.125V83.125C488.106 83.125 497.347 85.0723 505.668 88.9355L507.353 85.3075ZM477.912 79.125C456.44 79.125 438.667 87.0499 424.748 102.867L427.751 105.51C440.893 90.5758 457.562 83.125 477.912 83.125V79.125ZM424.746 102.869C411.067 118.457 404.415 142.09 404.415 173.379H408.415C408.415 142.551 414.985 120.056 427.752 105.508L424.746 102.869ZM404.415 173.379C404.415 204.673 411.069 228.447 424.733 244.335L427.766 241.727C414.983 226.864 408.415 204.204 408.415 173.379H404.415ZM424.761 244.367C438.685 259.874 456.454 267.634 477.912 267.634V263.634C457.547 263.634 440.875 256.325 427.737 241.695L424.761 244.367ZM687.916 11.9343V9.93428H685.916V11.9343H687.916ZM807.847 11.9343L809.702 11.1871L809.197 9.93428H807.847V11.9343ZM874.731 177.992L872.876 178.739L873.38 179.992H874.731V177.992ZM886.263 177.992V179.992H887.613L888.118 178.739L886.263 177.992ZM953.147 11.9343V9.93428H951.797L951.292 11.1871L953.147 11.9343ZM1073.08 11.9343H1075.08V9.93428H1073.08V11.9343ZM1073.08 334.824V336.824H1075.08V334.824H1073.08ZM987.742 334.824H985.742V336.824H987.742V334.824ZM987.742 150.316L985.77 149.987L985.742 150.15V150.316H987.742ZM994.662 108.801L996.634 109.13L997.022 106.801H994.662V108.801ZM990.049 108.801V106.801H988.706L988.198 108.044L990.049 108.801ZM927.777 261.021V263.021H929.12L929.628 261.778L927.777 261.021ZM833.217 261.021L831.365 261.778L831.874 263.021H833.217V261.021ZM770.945 108.801L772.796 108.044L772.288 106.801H770.945V108.801ZM766.332 108.801V106.801H763.971L764.359 109.13L766.332 108.801ZM773.251 150.316H775.251V150.15L775.224 149.987L773.251 150.316ZM773.251 334.824V336.824H775.251V334.824H773.251ZM687.916 334.824H685.916V336.824H687.916V334.824ZM687.916 13.9343H807.847V9.93428H687.916V13.9343ZM805.991 12.6815L872.876 178.739L876.586 177.245L809.702 11.1871L805.991 12.6815ZM874.731 179.992H886.263V175.992H874.731V179.992ZM888.118 178.739L955.002 12.6815L951.292 11.1871L884.408 177.245L888.118 178.739ZM953.147 13.9343H1073.08V9.93428H953.147V13.9343ZM1071.08 11.9343V334.824H1075.08V11.9343H1071.08ZM1073.08 332.824H987.742V336.824H1073.08V332.824ZM989.742 334.824V150.316H985.742V334.824H989.742ZM989.715 150.645L996.634 109.13L992.689 108.472L985.77 149.987L989.715 150.645ZM994.662 106.801H990.049V110.801H994.662V106.801ZM988.198 108.044L925.926 260.264L929.628 261.778L991.9 109.559L988.198 108.044ZM927.777 259.021H833.217V263.021H927.777V259.021ZM835.068 260.264L772.796 108.044L769.094 109.559L831.365 261.778L835.068 260.264ZM770.945 106.801H766.332V110.801H770.945V106.801ZM764.359 109.13L771.279 150.645L775.224 149.987L768.305 108.472L764.359 109.13ZM771.251 150.316V334.824H775.251V150.316H771.251ZM773.251 332.824H687.916V336.824H773.251V332.824ZM689.916 334.824V11.9343H685.916V334.824H689.916Z" fill="#D1D5DB" mask="url(#path-1-outside-1_5214_48344)"/>
<defs>
<filter id="filter0_i_5214_48344" x="0.838135" y="0.708984" width="1074.24" height="345.341" filterUnits="userSpaceOnUse" color-interpolation-filters="sRGB">
<feFlood flood-opacity="0" result="BackgroundImageFix"/>
<feBlend mode="normal" in="SourceGraphic" in2="BackgroundImageFix" result="shape"/>
<feColorMatrix in="SourceAlpha" type="matrix" values="0 0 0 0 0 0 0 0 0 0 0 0 0 0 0 0 0 0 127 0" result="hardAlpha"/>
<feOffset dy="-5"/>
<feComposite in2="hardAlpha" operator="arithmetic" k2="-1" k3="1"/>
<feColorMatrix type="matrix" values="0 0 0 0 0.227451 0 0 0 0 0.152941 0 0 0 0 0.788235 0 0 0 1 0"/>
<feBlend mode="normal" in2="shape" result="effect1_innerShadow_5214_48344"/>
</filter>
</defs>
</svg>
