<svg width="130" height="36" viewBox="0 0 130 36" fill="none" xmlns="http://www.w3.org/2000/svg">
<path fill-rule="evenodd" clip-rule="evenodd" d="M20 28.1471V7.85294H0V11.9118H16V28.1471H20Z" fill="url(#paint0_linear_4843_67437)"/>
<path fill-rule="evenodd" clip-rule="evenodd" d="M0 28.147L12.3203 28.147C13.3648 26.685 13.9793 24.8947 13.9793 22.9609C13.9793 18.0282 9.98055 14.0294 5.0478 14.0294C3.17456 14.0294 1.43601 14.6061 2.1167e-06 15.5916L0 28.147Z" fill="url(#paint1_linear_4843_67437)"/>
<path d="M29.5444 8.36804H37.2664C38.2802 8.36804 39.191 8.52644 39.9988 8.84324C40.8225 9.1442 41.5194 9.55604 42.0897 10.0788C42.6758 10.6015 43.1272 11.2192 43.444 11.932C43.7608 12.629 43.9192 13.3814 43.9192 14.1892C43.9192 14.9971 43.7608 15.7574 43.444 16.4702C43.1272 17.1672 42.6758 17.777 42.0897 18.2997C41.5194 18.8224 40.8225 19.2422 39.9988 19.559C39.191 19.86 38.2802 20.0104 37.2664 20.0104H33.1084V25H29.5444V8.36804ZM37.1476 16.684C38.1614 16.684 38.9296 16.4464 39.4523 15.9712C39.975 15.496 40.2364 14.902 40.2364 14.1892C40.2364 13.4764 39.975 12.8824 39.4523 12.4072C38.9296 11.932 38.1614 11.6944 37.1476 11.6944H33.1084V16.684H37.1476ZM50.6954 25.3564C49.2065 25.3564 48.0422 24.9288 47.2027 24.0734C46.3632 23.2022 45.9434 21.9271 45.9434 20.248V12.8824H49.2698V19.7728C49.2698 20.6757 49.4916 21.3568 49.9351 21.8162C50.3786 22.2756 50.9885 22.5052 51.7646 22.5052C52.1448 22.5052 52.5091 22.426 52.8576 22.2676C53.2061 22.1092 53.507 21.8954 53.7605 21.6261C54.0298 21.341 54.2357 21.0004 54.3782 20.6044C54.5366 20.2084 54.6158 19.7728 54.6158 19.2976V12.8824H57.9422V25H54.6158V23.3368H54.497C54.2753 23.7328 53.9822 24.0734 53.6179 24.3585C53.3011 24.612 52.9051 24.8416 52.4299 25.0476C51.9547 25.2535 51.3766 25.3564 50.6954 25.3564ZM60.5614 12.8824H63.8878V14.6644H64.0066C64.1492 14.2843 64.363 13.9516 64.6481 13.6665C64.8857 13.4131 65.2025 13.1834 65.5985 12.9775C65.9945 12.7557 66.4935 12.6448 67.0954 12.6448H68.521V15.8524H66.739C65.8361 15.8524 65.1313 16.098 64.6244 16.589C64.1333 17.08 63.8878 17.7453 63.8878 18.5848V25H60.5614V12.8824ZM70.1907 12.8824H73.5171V25H70.1907V12.8824ZM71.8539 11.338C71.3154 11.338 70.8639 11.1638 70.4996 10.8153C70.1353 10.451 69.9531 10.0312 69.9531 9.55604C69.9531 9.08084 70.1353 8.669 70.4996 8.32052C70.8639 7.9562 71.3154 7.77404 71.8539 7.77404C72.3925 7.77404 72.8439 7.9562 73.2082 8.32052C73.5726 8.669 73.7547 9.08084 73.7547 9.55604C73.7547 10.0312 73.5726 10.451 73.2082 10.8153C72.8439 11.1638 72.3925 11.338 71.8539 11.338ZM76.7247 15.9712H75.1803V13.12H76.7247V8.36804H83.4963V11.2192H80.0511V13.12H82.7835V15.9712H80.0511V25H76.7247V15.9712ZM89.4447 25H86.8311L83.6235 12.8824H87.0687L89.4447 22.1488H90.3951L93.0087 12.8824H96.4539L91.5831 29.5144H88.1379L89.4447 25Z" fill="#3E3941"/>
<path d="M100.607 16.684L96.9244 8.36804H102.508L104.646 14.308H105.716L107.854 8.36804H113.438L109.755 16.684L113.913 25H108.21L105.716 19.06H104.646L102.152 25H96.4492L100.607 16.684Z" fill="url(#paint2_linear_4843_67437)"/>
<path d="M119.774 9V4.34304H118.19V3.32928H122.427V4.34304H120.843V9H119.774ZM123.188 3.32928H124.241L125.976 6.33096H126.039L127.773 3.32928H128.835V9H127.773V6.20424L127.837 5.25384H127.773L126.332 7.79616H125.69L124.241 5.25384H124.178L124.241 6.20424V9H123.188V3.32928Z" fill="#3E3941"/>
<defs>
<linearGradient id="paint0_linear_4843_67437" x1="20" y1="7.85294" x2="-0.291956" y2="27.8508" gradientUnits="userSpaceOnUse">
<stop stop-color="#3A27C9"/>
<stop offset="1" stop-color="#998EE9"/>
</linearGradient>
<linearGradient id="paint1_linear_4843_67437" x1="10.2725" y1="15.1458" x2="-1.29391" y2="31.8925" gradientUnits="userSpaceOnUse">
<stop stop-color="#7668E2"/>
<stop offset="1" stop-color="#998EE9"/>
</linearGradient>
<linearGradient id="paint2_linear_4843_67437" x1="71" y1="52.9635" x2="80.1676" y2="1.63751" gradientUnits="userSpaceOnUse">
<stop stop-color="#A49CE6"/>
<stop offset="1" stop-color="#3A27C9"/>
</linearGradient>
</defs>
</svg>
