<svg width="20" height="21" viewBox="0 0 20 21" fill="none" xmlns="http://www.w3.org/2000/svg">
<path d="M7.1071 3.9148C7.7051 2.1648 10.1231 2.1118 10.8321 3.7558L10.8921 3.9158L11.6991 6.2758C11.884 6.81703 12.1829 7.31231 12.5755 7.72822C12.9682 8.14413 13.4454 8.47101 13.9751 8.6868L14.1921 8.7678L16.5521 9.5738C18.3021 10.1718 18.3551 12.5898 16.7121 13.2988L16.5521 13.3588L14.1921 14.1658C13.6507 14.3506 13.1552 14.6494 12.7391 15.0421C12.323 15.4347 11.996 15.912 11.7801 16.4418L11.6991 16.6578L10.8931 19.0188C10.2951 20.7688 7.8771 20.8218 7.1691 19.1788L7.1071 19.0188L6.3011 16.6588C6.11628 16.1174 5.81748 15.6219 5.42485 15.2058C5.03222 14.7897 4.5549 14.4627 4.0251 14.2468L3.8091 14.1658L1.4491 13.3598C-0.301896 12.7618 -0.354896 10.3438 1.2891 9.6358L1.4491 9.5738L3.8091 8.7678C4.35034 8.58285 4.84562 8.28399 5.26153 7.89137C5.67744 7.49874 6.00432 7.02149 6.2201 6.4918L6.3011 6.2758L7.1071 3.9148ZM17.0001 0.466797C17.1872 0.466797 17.3705 0.519275 17.5293 0.618268C17.688 0.717262 17.8158 0.8588 17.8981 1.0268L17.9461 1.1438L18.2961 2.1698L19.3231 2.5198C19.5106 2.58349 19.6749 2.70141 19.7953 2.85861C19.9157 3.01581 19.9867 3.20522 19.9994 3.40282C20.012 3.60042 19.9657 3.79733 19.8663 3.96858C19.7669 4.13984 19.6189 4.27774 19.4411 4.3648L19.3231 4.4128L18.2971 4.7628L17.9471 5.7898C17.8833 5.97723 17.7653 6.1415 17.608 6.26179C17.4508 6.38208 17.2613 6.45299 17.0637 6.46552C16.8661 6.47805 16.6693 6.43164 16.4981 6.33218C16.3269 6.23271 16.1891 6.08466 16.1021 5.9068L16.0541 5.7898L15.7041 4.7638L14.6771 4.4138C14.4896 4.3501 14.3253 4.23218 14.2049 4.07498C14.0845 3.91778 14.0135 3.72838 14.0008 3.53078C13.9882 3.33317 14.0345 3.13627 14.1339 2.96501C14.2333 2.79375 14.3813 2.65586 14.5591 2.5688L14.6771 2.5208L15.7031 2.1708L16.0531 1.1438C16.1205 0.946222 16.2481 0.774705 16.4179 0.653296C16.5878 0.531886 16.7913 0.466672 17.0001 0.466797Z" fill="white"/>
</svg>
